<?xml version="1.0" encoding="UTF-8"?>
<!DOCTYPE svg PUBLIC "-//W3C//DTD SVG 1.1//EN" "http://www.w3.org/Graphics/SVG/1.1/DTD/svg11.dtd">
<svg xmlns="http://www.w3.org/2000/svg" version="1.1" width="192px" height="192px" style="shape-rendering:geometricPrecision; text-rendering:geometricPrecision; image-rendering:optimizeQuality; fill-rule:evenodd; clip-rule:evenodd" xmlns:xlink="http://www.w3.org/1999/xlink">
<g><path style="opacity:0.999" fill="#dbdcde" d="M 24.5,-0.5 C 80.1667,-0.5 135.833,-0.5 191.5,-0.5C 191.5,2.5 191.5,5.5 191.5,8.5C 153.175,9.42295 117.175,18.4229 83.5,35.5C 75.3239,30.9116 66.9906,26.5782 58.5,22.5C 46.8209,15.3284 35.4876,7.66176 24.5,-0.5 Z"/></g>
<g><path style="opacity:1" fill="#e2e3e4" d="M -0.5,-0.5 C 7.83333,-0.5 16.1667,-0.5 24.5,-0.5C 35.4876,7.66176 46.8209,15.3284 58.5,22.5C 46.9905,30.4335 35.9905,39.1002 25.5,48.5C 17.0504,45.1269 8.38378,42.1269 -0.5,39.5C -0.5,26.1667 -0.5,12.8333 -0.5,-0.5 Z"/></g>
<g><path style="opacity:1" fill="#e1e3e4" d="M 191.5,8.5 C 191.5,19.5 191.5,30.5 191.5,41.5C 175.179,41.9416 159.179,44.2749 143.5,48.5C 142.833,48.1667 142.167,47.8333 141.5,47.5C 136.482,51.2329 130.815,53.5662 124.5,54.5C 117.022,52.1758 109.855,49.1758 103,45.5C 102.536,46.0944 102.369,46.7611 102.5,47.5C 100.093,43.6899 97.9263,39.6899 96,35.5C 95.059,37.7274 93.8923,39.7274 92.5,41.5C 92.5858,40.5041 92.2524,39.6708 91.5,39C 88.4702,38.4218 85.8035,37.2552 83.5,35.5C 117.175,18.4229 153.175,9.42295 191.5,8.5 Z"/></g>
<g><path style="opacity:1" fill="#e7e9e9" d="M 58.5,22.5 C 66.9906,26.5782 75.3239,30.9116 83.5,35.5C 85.8035,37.2552 88.4702,38.4218 91.5,39C 92.2524,39.6708 92.5858,40.5041 92.5,41.5C 89.0699,49.3576 85.4032,57.0242 81.5,64.5C 65.6874,60.0313 49.6874,55.8647 33.5,52C 30.7334,50.9167 28.0668,49.75 25.5,48.5C 35.9905,39.1002 46.9905,30.4335 58.5,22.5 Z"/></g>
<g><path style="opacity:1" fill="#edeeef" d="M -0.5,39.5 C 8.38378,42.1269 17.0504,45.1269 25.5,48.5C 28.0668,49.75 30.7334,50.9167 33.5,52C 49.6874,55.8647 65.6874,60.0313 81.5,64.5C 76.6763,76.144 71.343,87.4773 65.5,98.5C 65.44,97.9569 65.1067,97.6236 64.5,97.5C 60.7781,99.3139 59.1115,102.314 59.5,106.5C 58.5,106.5 57.5,106.5 56.5,106.5C 52.9369,112.879 49.6035,119.546 46.5,126.5C 43.7115,137.785 41.7115,149.118 40.5,160.5C 41.6232,168.529 42.7898,176.529 44,184.5C 44.8333,186 46,187.167 47.5,188C 51.6469,189.109 55.6469,190.276 59.5,191.5C 56.8333,191.5 54.1667,191.5 51.5,191.5C 49.1682,189.904 46.5015,188.738 43.5,188C 37.7989,186.893 32.1322,185.727 26.5,184.5C 23.4454,172.074 22.7787,159.408 24.5,146.5C 25.6578,141.897 26.4911,137.23 27,132.5C 30.5089,128.137 32.0089,123.137 31.5,117.5C 32.5,117.5 33.5,117.5 34.5,117.5C 36.7063,109.042 40.873,101.709 47,95.5C 47.6016,92.3974 49.4349,90.3974 52.5,89.5C 53.6932,87.4728 54.5265,85.4728 55,83.5C 36.5879,73.569 18.0879,63.9024 -0.5,54.5C -0.5,49.5 -0.5,44.5 -0.5,39.5 Z"/></g>
<g><path style="opacity:1" fill="#196fc3" d="M 102.5,47.5 C 103.97,51.9117 105.637,56.245 107.5,60.5C 104.697,66.8273 101.197,72.8273 97,78.5C 82.2768,98.891 67.9434,119.558 54,140.5C 51.6431,142.646 49.1431,142.979 46.5,141.5C 52.5586,127.049 58.8919,112.716 65.5,98.5C 71.343,87.4773 76.6763,76.144 81.5,64.5C 85.4032,57.0242 89.0699,49.3576 92.5,41.5C 93.8923,39.7274 95.059,37.7274 96,35.5C 97.9263,39.6899 100.093,43.6899 102.5,47.5 Z"/></g>
<g><path style="opacity:1" fill="#e8eaea" d="M 191.5,41.5 C 191.5,52.8333 191.5,64.1667 191.5,75.5C 187.486,75.6655 183.486,75.4988 179.5,75C 162.394,69.4779 145.394,63.8112 128.5,58C 126.456,57.5017 125.122,56.335 124.5,54.5C 130.815,53.5662 136.482,51.2329 141.5,47.5C 142.167,47.8333 142.833,48.1667 143.5,48.5C 159.179,44.2749 175.179,41.9416 191.5,41.5 Z"/></g>
<g><path style="opacity:1" fill="#eef0f0" d="M 124.5,54.5 C 125.122,56.335 126.456,57.5017 128.5,58C 145.394,63.8112 162.394,69.4779 179.5,75C 183.486,75.4988 187.486,75.6655 191.5,75.5C 191.5,76.8333 191.5,78.1667 191.5,79.5C 166.894,78.8636 142.394,76.1969 118,71.5C 116.319,71.6083 115.152,72.2749 114.5,73.5C 111.976,69.2569 109.643,64.9236 107.5,60.5C 105.637,56.245 103.97,51.9117 102.5,47.5C 102.369,46.7611 102.536,46.0944 103,45.5C 109.855,49.1758 117.022,52.1758 124.5,54.5 Z"/></g>
<g><path style="opacity:1" fill="#1777c9" d="M 107.5,60.5 C 109.643,64.9236 111.976,69.2569 114.5,73.5C 114.5,74.1667 114.5,74.8333 114.5,75.5C 114.159,78.5158 112.993,81.1825 111,83.5C 107.753,87.6591 104.753,91.9924 102,96.5C 101.329,97.2524 100.496,97.5858 99.5,97.5C 98.1359,95.78 97.1359,93.78 96.5,91.5C 95.6406,90.2258 94.9739,90.3925 94.5,92C 86.7419,108.68 79.4086,125.513 72.5,142.5C 63.4017,143.815 54.4017,143.815 45.5,142.5C 45.5,141.833 45.8333,141.5 46.5,141.5C 49.1431,142.979 51.6431,142.646 54,140.5C 67.9434,119.558 82.2768,98.891 97,78.5C 101.197,72.8273 104.697,66.8273 107.5,60.5 Z"/></g>
<g><path style="opacity:1" fill="#e8e9e9" d="M -0.5,54.5 C 18.0879,63.9024 36.5879,73.569 55,83.5C 54.5265,85.4728 53.6932,87.4728 52.5,89.5C 49.4349,90.3974 47.6016,92.3974 47,95.5C 40.873,101.709 36.7063,109.042 34.5,117.5C 33.5,117.5 32.5,117.5 31.5,117.5C 32.0089,123.137 30.5089,128.137 27,132.5C 26.4911,137.23 25.6578,141.897 24.5,146.5C 22.7787,159.408 23.4454,172.074 26.5,184.5C 32.1322,185.727 37.7989,186.893 43.5,188C 46.5015,188.738 49.1682,189.904 51.5,191.5C 34.1667,191.5 16.8333,191.5 -0.5,191.5C -0.5,145.833 -0.5,100.167 -0.5,54.5 Z"/></g>
<g><path style="opacity:1" fill="#f7f8f8" d="M 191.5,79.5 C 191.5,116.833 191.5,154.167 191.5,191.5C 160.833,191.5 130.167,191.5 99.5,191.5C 97.9126,189.03 96.4126,186.364 95,183.5C 94.2797,181.888 94.4464,180.388 95.5,179C 94.572,178.612 93.9054,177.945 93.5,177C 92.2111,173.234 91.7111,169.401 92,165.5C 93.1628,169.213 94.6628,169.213 96.5,165.5C 97.3333,166.5 98.1667,167.5 99,168.5C 99.9078,166.561 101.408,165.561 103.5,165.5C 103.281,166.675 103.614,167.675 104.5,168.5C 105.429,167.311 105.762,165.978 105.5,164.5C 106.473,163.209 107.473,163.209 108.5,164.5C 109.333,163.5 110.167,162.5 111,161.5C 111.833,162.5 112.667,163.5 113.5,164.5C 113.931,161.968 113.098,159.634 111,157.5C 109.915,159.657 108.749,159.824 107.5,158C 105.527,157.505 103.527,157.338 101.5,157.5C 101.649,158.552 101.483,159.552 101,160.5C 98.9019,156.516 97.2352,156.849 96,161.5C 95.5172,160.552 95.3505,159.552 95.5,158.5C 95.5997,151.282 97.2664,144.615 100.5,138.5C 103.378,139.37 106.045,140.703 108.5,142.5C 108.833,142.167 109.167,141.833 109.5,141.5C 107.269,137.708 105.602,133.708 104.5,129.5C 105.011,127.805 105.678,126.139 106.5,124.5C 107.865,123.193 109.198,123.193 110.5,124.5C 112.736,128.645 114.736,132.978 116.5,137.5C 117.441,139.05 118.107,140.716 118.5,142.5C 122.783,143.827 127.449,144.493 132.5,144.5C 137.167,144.167 141.833,143.833 146.5,143.5C 146.376,142.893 146.043,142.56 145.5,142.5C 141.677,132.858 137.343,123.524 132.5,114.5C 130.063,107.832 127.063,101.498 123.5,95.5C 121.011,88.5277 118.011,81.861 114.5,75.5C 114.5,74.8333 114.5,74.1667 114.5,73.5C 115.152,72.2749 116.319,71.6083 118,71.5C 142.394,76.1969 166.894,78.8636 191.5,79.5 Z"/></g>
<g><path style="opacity:1" fill="#1d86d3" d="M 114.5,75.5 C 118.011,81.861 121.011,88.5277 123.5,95.5C 123.628,97.6547 123.128,99.6547 122,101.5C 118.753,105.659 115.753,109.992 113,114.5C 111.693,116.192 110.193,117.525 108.5,118.5C 105.227,111.62 102.227,104.62 99.5,97.5C 100.496,97.5858 101.329,97.2524 102,96.5C 104.753,91.9924 107.753,87.6591 111,83.5C 112.993,81.1825 114.159,78.5158 114.5,75.5 Z"/></g>
<g><path style="opacity:1" fill="#eeeeef" d="M 99.5,97.5 C 102.227,104.62 105.227,111.62 108.5,118.5C 109.167,120.5 109.833,122.5 110.5,124.5C 109.198,123.193 107.865,123.193 106.5,124.5C 105.678,126.139 105.011,127.805 104.5,129.5C 101.321,123.993 98.321,118.326 95.5,112.5C 90.4551,121.959 85.7884,131.626 81.5,141.5C 85.4284,140.871 89.0951,139.037 92.5,136C 95.8173,135.023 98.484,135.856 100.5,138.5C 97.2664,144.615 95.5997,151.282 95.5,158.5C 94.8333,158.167 94.1667,157.833 93.5,157.5C 93.5,157.167 93.5,156.833 93.5,156.5C 92.0527,155.115 91.0527,155.448 90.5,157.5C 88.302,158.067 85.9686,158.067 83.5,157.5C 83.6602,159.199 83.4935,160.866 83,162.5C 80.5167,156.04 78.35,156.374 76.5,163.5C 76.8333,163.833 77.1667,164.167 77.5,164.5C 78.3333,163.5 79.1667,162.5 80,161.5C 81.724,164.73 83.724,165.064 86,162.5C 87.3799,165.058 88.8799,165.058 90.5,162.5C 91.1924,163.025 91.6924,163.692 92,164.5C 93.0859,162.153 94.4192,162.153 96,164.5C 97.221,163.728 98.221,162.728 99,161.5C 100.287,164.145 102.453,165.145 105.5,164.5C 105.762,165.978 105.429,167.311 104.5,168.5C 103.614,167.675 103.281,166.675 103.5,165.5C 101.408,165.561 99.9078,166.561 99,168.5C 98.1667,167.5 97.3333,166.5 96.5,165.5C 94.6628,169.213 93.1628,169.213 92,165.5C 91.7111,169.401 92.2111,173.234 93.5,177C 93.9054,177.945 94.572,178.612 95.5,179C 94.4464,180.388 94.2797,181.888 95,183.5C 96.4126,186.364 97.9126,189.03 99.5,191.5C 86.1667,191.5 72.8333,191.5 59.5,191.5C 55.6469,190.276 51.6469,189.109 47.5,188C 46,187.167 44.8333,186 44,184.5C 42.7898,176.529 41.6232,168.529 40.5,160.5C 41.7115,149.118 43.7115,137.785 46.5,126.5C 49.6035,119.546 52.9369,112.879 56.5,106.5C 57.5,106.5 58.5,106.5 59.5,106.5C 59.1115,102.314 60.7781,99.3139 64.5,97.5C 65.1067,97.6236 65.44,97.9569 65.5,98.5C 58.8919,112.716 52.5586,127.049 46.5,141.5C 45.8333,141.5 45.5,141.833 45.5,142.5C 44.9569,142.56 44.6236,142.893 44.5,143.5C 49.1667,143.833 53.8333,144.167 58.5,144.5C 63.5508,144.493 68.2175,143.827 72.5,142.5C 79.4086,125.513 86.7419,108.68 94.5,92C 94.9739,90.3925 95.6406,90.2258 96.5,91.5C 97.1359,93.78 98.1359,95.78 99.5,97.5 Z"/></g>
<g><path style="opacity:1" fill="#2192dc" d="M 123.5,95.5 C 127.063,101.498 130.063,107.832 132.5,114.5C 129.697,120.827 126.197,126.827 122,132.5C 120.574,134.766 118.74,136.432 116.5,137.5C 114.736,132.978 112.736,128.645 110.5,124.5C 109.833,122.5 109.167,120.5 108.5,118.5C 110.193,117.525 111.693,116.192 113,114.5C 115.753,109.992 118.753,105.659 122,101.5C 123.128,99.6547 123.628,97.6547 123.5,95.5 Z"/></g>
<g><path style="opacity:1" fill="#e72f33" d="M 104.5,129.5 C 105.602,133.708 107.269,137.708 109.5,141.5C 109.167,141.833 108.833,142.167 108.5,142.5C 106.045,140.703 103.378,139.37 100.5,138.5C 98.484,135.856 95.8173,135.023 92.5,136C 89.0951,139.037 85.4284,140.871 81.5,141.5C 85.7884,131.626 90.4551,121.959 95.5,112.5C 98.321,118.326 101.321,123.993 104.5,129.5 Z"/></g>
<g><path style="opacity:1" fill="#259ce3" d="M 132.5,114.5 C 137.343,123.524 141.677,132.858 145.5,142.5C 136.598,143.815 127.598,143.815 118.5,142.5C 118.107,140.716 117.441,139.05 116.5,137.5C 118.74,136.432 120.574,134.766 122,132.5C 126.197,126.827 129.697,120.827 132.5,114.5 Z"/></g>
<g><path style="opacity:1" fill="#adcbe4" d="M 45.5,142.5 C 54.4017,143.815 63.4017,143.815 72.5,142.5C 68.2175,143.827 63.5508,144.493 58.5,144.5C 53.8333,144.167 49.1667,143.833 44.5,143.5C 44.6236,142.893 44.9569,142.56 45.5,142.5 Z"/></g>
<g><path style="opacity:1" fill="#bee0f2" d="M 118.5,142.5 C 127.598,143.815 136.598,143.815 145.5,142.5C 146.043,142.56 146.376,142.893 146.5,143.5C 141.833,143.833 137.167,144.167 132.5,144.5C 127.449,144.493 122.783,143.827 118.5,142.5 Z"/></g>
<g><path style="opacity:1" fill="#e18e95" d="M 93.5,156.5 C 92.1667,156.5 91.5,157.167 91.5,158.5C 90.8333,158.5 90.5,158.167 90.5,157.5C 91.0527,155.448 92.0527,155.115 93.5,156.5 Z"/></g>
<g><path style="opacity:1" fill="#e43f43" d="M 93.5,156.5 C 93.5,156.833 93.5,157.167 93.5,157.5C 92.7784,157.918 92.2784,158.584 92,159.5C 91.6012,159.272 91.4346,158.938 91.5,158.5C 91.5,157.167 92.1667,156.5 93.5,156.5 Z"/></g>
<g><path style="opacity:1" fill="#407eb7" d="M 90.5,157.5 C 90.5,158.167 90.8333,158.5 91.5,158.5C 91.4346,158.938 91.6012,159.272 92,159.5C 92.2784,158.584 92.7784,157.918 93.5,157.5C 94.1667,157.833 94.8333,158.167 95.5,158.5C 95.3505,159.552 95.5172,160.552 96,161.5C 97.2352,156.849 98.9019,156.516 101,160.5C 101.483,159.552 101.649,158.552 101.5,157.5C 103.527,157.338 105.527,157.505 107.5,158C 108.749,159.824 109.915,159.657 111,157.5C 113.098,159.634 113.931,161.968 113.5,164.5C 112.667,163.5 111.833,162.5 111,161.5C 110.167,162.5 109.333,163.5 108.5,164.5C 107.473,163.209 106.473,163.209 105.5,164.5C 102.453,165.145 100.287,164.145 99,161.5C 98.221,162.728 97.221,163.728 96,164.5C 94.4192,162.153 93.0859,162.153 92,164.5C 91.6924,163.692 91.1924,163.025 90.5,162.5C 88.8799,165.058 87.3799,165.058 86,162.5C 83.724,165.064 81.724,164.73 80,161.5C 79.1667,162.5 78.3333,163.5 77.5,164.5C 77.1667,164.167 76.8333,163.833 76.5,163.5C 78.35,156.374 80.5167,156.04 83,162.5C 83.4935,160.866 83.6602,159.199 83.5,157.5C 85.9686,158.067 88.302,158.067 90.5,157.5 Z"/></g>
<g><path style="opacity:1" fill="#aac6dd" d="M 103.5,158.5 C 105.912,158.694 106.912,160.027 106.5,162.5C 105.5,162.5 104.5,162.5 103.5,162.5C 103.5,161.167 103.5,159.833 103.5,158.5 Z"/></g>
</svg>
