<?xml version="1.0" encoding="UTF-8"?>
<!DOCTYPE svg PUBLIC "-//W3C//DTD SVG 1.1//EN" "http://www.w3.org/Graphics/SVG/1.1/DTD/svg11.dtd">
<svg xmlns="http://www.w3.org/2000/svg" version="1.1" width="127px" height="138px" style="shape-rendering:geometricPrecision; text-rendering:geometricPrecision; image-rendering:optimizeQuality; fill-rule:evenodd; clip-rule:evenodd" xmlns:xlink="http://www.w3.org/1999/xlink">
<g><path style="opacity:0.972" fill="#017afd" d="M 62.5,-0.5 C 63.1667,-0.5 63.8333,-0.5 64.5,-0.5C 84.3826,44.9274 105.049,89.9274 126.5,134.5C 126.5,135.5 126.5,136.5 126.5,137.5C 115.833,137.5 105.167,137.5 94.5,137.5C 84.3479,114.526 74.1812,91.526 64,68.5C 52.9546,91.2571 42.4546,114.257 32.5,137.5C 21.5,137.5 10.5,137.5 -0.5,137.5C -0.5,137.167 -0.5,136.833 -0.5,136.5C 21.0637,91.1647 42.0637,45.498 62.5,-0.5 Z"/></g>
<g><path style="opacity:0.956" fill="#e32028" d="M 86.5,137.5 C 85.8333,137.5 85.1667,137.5 84.5,137.5C 78.0139,132.752 71.0139,128.752 63.5,125.5C 55.9861,128.752 48.9861,132.752 42.5,137.5C 41.8333,137.5 41.1667,137.5 40.5,137.5C 47.6122,120.607 55.2789,103.94 63.5,87.5C 71.7211,103.94 79.3878,120.607 86.5,137.5 Z"/></g>
</svg>
